<?xml version="1.0" standalone="no"?>
<!DOCTYPE svg PUBLIC "-//W3C//DTD SVG 20010904//EN"
 "http://www.w3.org/TR/2001/REC-SVG-20010904/DTD/svg10.dtd">
<svg version="1.0" xmlns="http://www.w3.org/2000/svg"
 width="300.000000pt" height="158.000000pt" viewBox="0 0 300.000000 158.000000"
 preserveAspectRatio="xMidYMid meet">
<metadata>
Created by potrace 1.10, written by Peter Selinger 2001-2011
</metadata>
<g transform="translate(0.000000,158.000000) scale(0.100000,-0.100000)"
fill="#000000" stroke="none">
<path d="M1435 1288 c-206 -23 -382 -184 -426 -389 -18 -83 -6 -222 25 -298
110 -270 424 -392 682 -266 131 64 224 172 265 308 18 56 20 86 17 170 -6 121
-28 188 -94 277 -107 145 -283 220 -469 198z m158 -43 c92 -19 175 -66 242
-136 234 -245 137 -645 -184 -761 -82 -30 -225 -29 -306 2 -211 81 -335 288
-304 508 26 186 176 347 362 387 81 18 108 18 190 0z"/>
<path d="M1430 1055 c-12 -36 1 -164 21 -209 7 -16 8 -11 4 19 -17 130 -18
191 -1 208 15 14 15 17 2 17 -8 0 -20 -16 -26 -35z"/>
<path d="M1583 1075 c15 -9 27 -17 27 -19 0 -1 -7 -24 -16 -50 -9 -26 -14 -49
-12 -51 2 -3 12 18 22 45 10 28 21 50 25 50 4 0 17 -10 29 -23 l22 -23 -20
-39 c-11 -22 -20 -46 -19 -55 0 -8 8 5 17 29 18 48 42 66 42 32 0 -24 -41
-110 -52 -111 -5 0 -8 8 -9 18 0 14 -2 14 -9 -3 -12 -27 -12 -87 0 -105 8 -12
10 -10 10 9 0 13 18 50 40 83 55 80 60 108 26 153 -30 39 -64 59 -116 69 l-35
7 28 -16z"/>
<path d="M1521 1053 c-17 -37 -25 -142 -14 -183 9 -30 10 -23 12 50 0 47 6
101 11 120 12 42 7 49 -9 13z"/>
<path d="M1355 1038 c4 -13 14 -63 21 -112 8 -49 19 -96 25 -105 8 -13 9 -12
4 6 -3 11 -10 55 -14 95 -5 41 -13 84 -20 96 -14 27 -14 35 1 26 7 -4 8 -3 4
4 -13 21 -29 13 -21 -10z"/>
<path d="M1306 1024 c-4 -9 -2 -22 3 -28 13 -15 52 -180 47 -198 -1 -7 -1 -10
1 -5 3 4 8 5 12 3 4 -3 -4 43 -17 102 -13 59 -24 115 -25 125 -2 21 -13 22
-21 1z"/>
<path d="M1446 800 c-37 -12 -66 -38 -66 -63 0 -16 4 -18 23 -12 12 4 48 10
80 12 46 4 64 1 93 -16 44 -26 44 -26 44 2 0 37 -26 64 -74 76 -51 13 -60 13
-100 1z"/>
<path d="M1308 649 c-21 -11 -38 -23 -38 -27 0 -15 83 -53 94 -42 7 7 0 14
-22 22 -38 15 -40 25 -7 38 14 5 25 14 25 20 0 14 -9 12 -52 -11z"/>
<path d="M1630 660 c0 -5 11 -12 25 -16 14 -3 25 -9 25 -13 0 -4 -11 -14 -25
-21 -23 -12 -34 -30 -18 -30 11 0 73 44 73 52 0 9 -54 38 -70 38 -5 0 -10 -4
-10 -10z"/>
<path d="M1424 636 c-8 -22 3 -49 19 -43 6 2 12 14 12 27 0 27 -22 39 -31 16z"/>
<path d="M1540 635 c-11 -13 -11 -19 3 -33 20 -19 41 -5 35 24 -4 24 -22 28
-38 9z"/>
<path d="M1437 539 c-10 -6 -29 -8 -43 -5 -29 8 -33 -13 -6 -37 36 -33 108
-12 100 29 -4 22 -26 28 -51 13z"/>
<path d="M1517 544 c-14 -14 -7 -43 12 -54 30 -15 66 -12 84 8 25 28 21 38
-15 39 -18 0 -42 3 -53 7 -11 4 -24 4 -28 0z"/>
</g>
</svg>
