<?xml version="1.0" standalone="no"?>
<!DOCTYPE svg PUBLIC "-//W3C//DTD SVG 20010904//EN"
 "http://www.w3.org/TR/2001/REC-SVG-20010904/DTD/svg10.dtd">
<svg version="1.0" xmlns="http://www.w3.org/2000/svg"
 width="300.000000pt" height="300.000000pt" viewBox="0 0 300.000000 300.000000"
 preserveAspectRatio="xMidYMid meet">
<metadata>
Created by potrace 1.10, written by Peter Selinger 2001-2011
</metadata>
<g transform="translate(0.000000,300.000000) scale(0.100000,-0.100000)"
fill="#000000" stroke="none">
<path d="M552 2333 c-18 -7 -33 -39 -26 -58 4 -9 23 -24 43 -34 77 -40 71 23
71 -741 0 -763 6 -701 -71 -741 -39 -19 -52 -39 -43 -64 12 -30 44 -35 207
-35 162 0 164 0 187 25 l23 25 -22 24 c-13 14 -36 30 -52 37 -59 24 -59 21
-59 561 1 422 3 490 14 475 8 -10 37 -71 64 -135 28 -64 132 -309 232 -543
112 -265 190 -435 205 -449 29 -27 65 -22 88 14 9 13 55 116 103 227 392 923
394 929 405 929 15 0 11 -1010 -4 -1040 -7 -14 -30 -34 -51 -45 -21 -11 -45
-29 -52 -41 -12 -18 -11 -23 6 -41 28 -31 74 -35 362 -31 247 3 258 4 279 24
29 30 18 59 -34 86 -23 11 -47 28 -54 37 -9 12 -12 177 -13 697 0 674 0 682
21 708 11 14 26 26 33 26 22 0 66 40 66 59 0 10 -8 25 -18 34 -16 15 -49 17
-259 17 -236 0 -240 0 -261 -22 -11 -13 -108 -229 -215 -481 -108 -252 -198
-461 -201 -465 -3 -3 -9 -3 -12 0 -3 4 -93 213 -201 465 -107 252 -204 468
-215 481 -21 22 -24 22 -277 21 -141 0 -262 -3 -269 -6z m1898 -38 c0 -8 -16
-19 -39 -25 -23 -6 -51 -23 -65 -41 l-26 -31 0 -693 c0 -518 3 -701 12 -720
12 -26 73 -65 103 -65 8 0 15 -6 15 -12 0 -10 -69 -13 -310 -13 -200 0 -310 4
-310 10 0 6 21 17 47 25 34 11 54 25 70 49 l23 34 0 641 0 641 -39 -95 c-22
-52 -154 -365 -294 -695 -195 -457 -260 -601 -274 -603 -18 -3 -128 246 -515
1168 l-78 185 0 -615 c0 -709 -5 -670 87 -705 29 -11 53 -23 53 -27 0 -5 -81
-8 -180 -8 -99 0 -180 3 -180 8 0 4 21 15 48 24 33 12 53 27 67 50 19 32 20
52 20 718 0 784 5 735 -85 767 -28 10 -50 21 -50 25 0 5 118 8 263 8 l262 -1
213 -502 c117 -276 215 -512 219 -524 7 -29 19 -29 26 -1 4 12 102 248 219
524 l213 503 240 3 c132 2 241 4 243 6 1 1 2 -5 2 -13z"/>
<path d="M2817 1935 c-85 -23 -160 -68 -227 -135 -76 -76 -118 -144 -156 -255
-37 -107 -46 -329 -19 -452 63 -286 269 -473 522 -473 56 0 63 2 63 20 0 17
-7 20 -49 20 -240 0 -423 156 -493 419 -15 57 -20 108 -20 201 0 206 51 355
164 475 96 103 208 155 335 155 56 0 63 2 63 20 0 18 -6 20 -67 19 -38 0 -90
-7 -116 -14z"/>
<path d="M2880 1821 c-71 -37 -132 -166 -146 -306 l-7 -65 137 0 c129 0 136 1
136 20 0 19 -7 20 -94 20 -52 0 -101 3 -110 6 -32 12 -11 135 37 218 30 53 65
77 121 83 36 5 46 9 46 24 0 16 -8 19 -43 19 -23 0 -58 -8 -77 -19z"/>
<path d="M2723 1322 c16 -165 100 -303 224 -366 42 -21 53 -20 53 3 0 13 -15
26 -44 41 -52 25 -116 90 -146 150 -29 58 -52 170 -38 187 7 9 42 13 119 13
102 0 109 1 109 20 0 19 -7 20 -141 20 l-142 0 6 -68z"/>
</g>
</svg>
